<?xml version="1.0" encoding="UTF-8" standalone="no"?>
<svg
   viewBox="0 0 576 512"
   version="1.1"
   id="svg27"
   sodipodi:docname="icon.svg"
   inkscape:version="1.1.2 (0a00cf5339, 2022-02-04)"
   xmlns:inkscape="http://www.inkscape.org/namespaces/inkscape"
   xmlns:sodipodi="http://sodipodi.sourceforge.net/DTD/sodipodi-0.dtd"
   xmlns="http://www.w3.org/2000/svg"
   xmlns:svg="http://www.w3.org/2000/svg">
  <defs
     id="defs31" />
  <sodipodi:namedview
     id="namedview29"
     pagecolor="#ffffff"
     bordercolor="#000000"
     borderopacity="0.25"
     inkscape:pageshadow="2"
     inkscape:pageopacity="0.0"
     inkscape:pagecheckerboard="0"
     showgrid="false"
     inkscape:zoom="0.96679688"
     inkscape:cx="288.06465"
     inkscape:cy="256"
     inkscape:window-width="1366"
     inkscape:window-height="704"
     inkscape:window-x="0"
     inkscape:window-y="27"
     inkscape:window-maximized="1"
     inkscape:current-layer="svg27" />
  <!--!Font Awesome Free 6.5.2 by @fontawesome - https://fontawesome.com License - https://fontawesome.com/license/free Copyright 2024 Fonticons, Inc.-->
  <path
     d="M142.4 21.9c5.6 16.8-3.5 34.9-20.2 40.5L96 71.1V192c0 53 43 96 96 96s96-43 96-96V71.1l-26.1-8.7c-16.8-5.6-25.8-23.7-20.2-40.5s23.7-25.8 40.5-20.2l26.1 8.7C334.4 19.1 352 43.5 352 71.1V192c0 77.2-54.6 141.6-127.3 156.7C231 404.6 278.4 448 336 448c61.9 0 112-50.1 112-112V265.3c-28.3-12.3-48-40.5-48-73.3c0-44.2 35.8-80 80-80s80 35.8 80 80c0 32.8-19.7 61-48 73.3V336c0 97.2-78.8 176-176 176c-92.9 0-168.9-71.9-175.5-163.1C87.2 334.2 32 269.6 32 192V71.1c0-27.5 17.6-52 43.8-60.7l26.1-8.7c16.8-5.6 34.9 3.5 40.5 20.2zM480 224a32 32 0 1 0 0-64 32 32 0 1 0 0 64z"
     id="path25"
     style="fill:#3c40c6;fill-opacity:1" />
</svg>
